<svg width="188" height="43" viewBox="0 0 188 43" fill="none" xmlns="http://www.w3.org/2000/svg">
<mask id="mask0" mask-type="alpha" maskUnits="userSpaceOnUse" x="0" y="0" width="188" height="43">
<path fill-rule="evenodd" clip-rule="evenodd" d="M139.587 27.5689H146.659V8.81614H139.587V27.5689ZM139.482 3.98008C139.482 5.98061 141.123 7.18092 143.132 7.18092C145.122 7.18092 146.764 5.98061 146.764 3.98008C146.764 1.99695 145.122 0.796631 143.132 0.796631C141.123 0.796631 139.482 1.99695 139.482 3.98008ZM13.4067 27.5689V9.66853H16.8672C15.0816 11.8946 14.0134 14.7209 14.0134 17.7966C14.0134 22.2863 16.2894 26.2444 19.7505 28.5801C18.9182 28.5275 18.1767 28.5162 17.4131 28.5478C15.2042 28.5094 12.9634 28.6556 10.8013 29.4491C8.38385 30.3362 5.61225 31.6952 4.77699 34.636C4.5005 35.6095 4.61612 37.6438 6.71974 38.9409C7.79305 39.6028 9.18551 39.6771 10.2392 39.6139C10.7775 39.5817 11.2531 39.5117 11.5941 39.4499C11.765 39.4189 11.903 39.3898 11.9994 39.3682C12.0476 39.3574 12.0855 39.3484 12.1119 39.342L12.1428 39.3344L12.1515 39.3321L12.1534 39.3316L12.154 39.3315C13.3526 39.0259 14.4947 38.5437 15.5856 38.083L15.6261 38.0659L15.871 37.9625C16.8795 37.5364 17.8842 37.1119 18.8958 36.7293C19.0785 36.7051 19.2563 36.6801 19.4308 36.6556L19.4309 36.6556L19.4309 36.6556L19.4311 36.6555C20.026 36.5718 20.5837 36.4934 21.1723 36.4699C22.3771 36.422 23.639 36.4413 25.9549 37.3555C28.2017 38.2425 29.8139 40.0084 30.6697 42.3144C30.7647 42.5702 31.0471 42.7027 31.3045 42.6121L38.5857 40.0495C38.8382 39.9607 38.9745 39.6899 38.8992 39.4361C38.8871 39.3694 38.861 39.3042 38.8204 39.2446C37.328 37.0557 35.0305 35.6897 32.5703 34.9747C29.4629 34.0717 26.2143 33.9352 23.0473 34.494C21.3421 34.795 19.6984 35.3409 18.1035 35.9622C18.0714 35.9686 18.0394 35.9782 18.008 35.9913C14.7827 37.3352 12.6572 37.2028 11.2769 36.4788C10.5429 36.0938 10.064 35.6724 9.8088 35.1732C9.55845 34.6835 9.48532 34.0438 9.71633 33.1391C10.1427 31.4693 11.539 30.8955 12.8019 30.3765L12.8595 30.3528C13.7178 29.9998 14.3366 29.845 14.8109 29.7685C15.135 29.7163 15.369 29.7013 15.5995 29.6866H15.5995L15.5997 29.6866C15.7298 29.6783 15.8587 29.67 16.0022 29.6552C16.4998 29.6037 16.9621 29.5681 17.4168 29.5484C18.0994 29.5606 18.7878 29.5907 19.481 29.6256C20.3326 29.6684 21.1942 29.7243 22.0486 29.8149C23.5783 30.4476 25.2551 30.7966 27.0134 30.7966C34.1931 30.7966 40.0134 24.9763 40.0134 17.7966C40.0134 10.6169 34.1931 4.79663 27.0134 4.79663C24.1992 4.79663 21.5939 5.69085 19.466 7.21064V3.82352H0.0134277V9.66853H6.07272V27.5689H13.4067ZM53.1851 27.7255C57.2886 27.7255 59.873 24.716 59.873 18.871V17.4793C59.873 11.6169 57.2886 8.65957 53.1851 8.65957C50.5483 8.65957 48.6799 9.87728 47.9465 11.7908H47.5972V8.81614H40.4902V33.7966H47.5972V24.5594H47.9465C48.6799 26.473 50.5483 27.7255 53.1851 27.7255ZM50.0594 22.4371C48.6624 22.4371 47.5972 21.2368 47.5972 18.7144V17.688C47.5972 15.1656 48.6624 13.9827 50.0594 13.9827C51.5087 13.9827 52.5215 15.183 52.5215 17.688V18.7144C52.5215 21.2368 51.5087 22.4371 50.0594 22.4371ZM76.165 14.3306V27.5689H69.6866V3.82352H77.3524L82.4513 14.4176H82.6958L87.8121 3.82352H95.4081V27.5689H88.8249V14.3306H88.4931L84.4419 23.0634H80.6003L76.5142 14.3306H76.165ZM107.771 8.45082C101.799 8.45082 98.3242 12.2431 98.3242 17.6706V18.5926C98.3242 24.5942 101.799 27.9342 107.771 27.9342C113.708 27.9342 117.166 24.5942 117.166 18.5578V17.6185C117.166 12.1909 113.708 8.45082 107.771 8.45082ZM107.754 13.5304C109.622 13.5304 109.971 15.6005 109.971 17.4793V18.8884C109.971 20.5584 109.692 22.8546 107.754 22.8546C105.798 22.8546 105.519 20.5236 105.519 18.8884V17.4793C105.519 15.6353 105.868 13.5304 107.754 13.5304ZM131.589 27.5689H123.277L117.637 8.81614H125.268L127.451 21.5325H127.73L130.402 8.81614H137.806L131.589 27.5689ZM167.735 21.0628C167.701 23.9332 165.291 27.9342 158.917 27.9342C153.399 27.9342 149.418 25.0639 149.418 18.7318V17.5837C149.418 11.269 153.696 8.45082 158.655 8.45082C164.086 8.45082 167.788 11.8604 167.788 17.5837V19.5494H156.28V20.3496C156.28 22.0718 157.59 22.9242 158.882 22.9242C160.279 22.9242 161.432 22.2458 161.449 21.0628H167.735ZM158.725 13.2695C157.293 13.2695 156.28 14.3306 156.28 15.8963H161.065C161.065 14.3306 160.157 13.2695 158.725 13.2695ZM169.901 14.6959C169.901 18.2795 172.45 19.8277 175.628 20.4888C176.069 20.5817 176.53 20.6572 176.983 20.7313C178.649 21.004 180.203 21.2584 180.203 22.2979C180.203 22.959 179.592 23.5505 178.44 23.5505C177.2 23.5505 176.379 22.872 176.309 21.9674H169.464C169.464 25.29 172.223 27.9342 178.143 27.9342C183.958 27.9342 187.013 25.3944 187.013 21.376C187.013 18.2099 185.128 16.6443 181.74 16.0354C181.332 15.9622 180.891 15.9005 180.444 15.8379C178.552 15.5733 176.554 15.2937 176.554 14.0697C176.554 13.4434 177.078 12.7998 178.265 12.7998C179.522 12.7998 180.098 13.5304 180.238 14.3306H186.315C186.315 10.2774 182.892 8.45082 178.335 8.45082C173.847 8.45082 169.901 10.2252 169.901 14.6959ZM30.0134 9.79663C30.0134 11.4535 28.6703 12.7966 27.0134 12.7966C25.3566 12.7966 24.0134 11.4535 24.0134 9.79663C24.0134 8.13978 25.3566 6.79663 27.0134 6.79663C28.6703 6.79663 30.0134 8.13978 30.0134 9.79663ZM27.0134 28.7966C28.6703 28.7966 30.0134 27.4535 30.0134 25.7966C30.0134 24.1398 28.6703 22.7966 27.0134 22.7966C25.3566 22.7966 24.0134 24.1398 24.0134 25.7966C24.0134 27.4535 25.3566 28.7966 27.0134 28.7966ZM35.4417 16.3948C34.0068 17.2232 32.1721 16.7316 31.3436 15.2967C30.5152 13.8618 31.0068 12.027 32.4417 11.1986C33.8766 10.3702 35.7114 10.8618 36.5398 12.2967C37.3682 13.7316 36.8766 15.5663 35.4417 16.3948ZM17.4872 23.2967C18.3156 24.7316 20.1504 25.2232 21.5853 24.3948C23.0202 23.5663 23.5118 21.7316 22.6833 20.2967C21.8549 18.8618 20.0202 18.3702 18.5853 19.1986C17.1504 20.027 16.6588 21.8618 17.4872 23.2967ZM32.4417 24.3946C31.0068 23.5662 30.5152 21.7314 31.3436 20.2966C32.1721 18.8617 34.0068 18.3701 35.4417 19.1985C36.8766 20.0269 37.3682 21.8617 36.5398 23.2966C35.7114 24.7314 33.8766 25.2231 32.4417 24.3946ZM17.4872 12.2966C16.6588 13.7314 17.1504 15.5662 18.5853 16.3946C20.0202 17.2231 21.8549 16.7314 22.6833 15.2966C23.5118 13.8617 23.0202 12.0269 21.5853 11.1985C20.1504 10.3701 18.3156 10.8617 17.4872 12.2966Z" fill="black"/>
</mask>
<g mask="url(#mask0)">
<rect x="-21.2449" y="-14.6447" width="221.103" height="68.8764" fill="#C4C4C4"/>
<rect x="-21.2449" y="-14.6447" width="221.103" height="68.8764" fill="url(#paint0_linear)"/>
</g>
<defs>
<linearGradient id="paint0_linear" x1="189.876" y1="19.7936" x2="-12.2611" y2="19.7935" gradientUnits="userSpaceOnUse">
<stop stop-color="#FF2002"/>
<stop offset="0.380208" stop-color="#F02DD3"/>
<stop offset="1" stop-color="#6711F4"/>
</linearGradient>
</defs>
</svg>
